<?xml version="1.0" encoding="utf-8"?>
<!-- Generator: Adobe Illustrator 27.8.1, SVG Export Plug-In . SVG Version: 6.00 Build 0)  -->
<svg version="1.1" id="Layer_1" xmlns="http://www.w3.org/2000/svg" xmlns:xlink="http://www.w3.org/1999/xlink" x="0px" y="0px"
	 viewBox="0 0 97.6 57.9" style="enable-background:new 0 0 97.6 57.9;" xml:space="preserve">
<g>
	<g>
		<path d="M54.6,27.1c-0.3-0.4-0.8-0.7-1.1-0.7c0,0-1.1,0.2-3.1,0.5c0.6-1.5,1.2-3.1,1.7-4.8c2.9-8.6,4.4-13.9,5-17
			c0.8-4.3,0-5.5-1.8-5.2C54.7,0.1,49.7,6,43.1,13.8c-8.8-5-23.6,0.1-33.4,6C7.2,21.4,5,23,3.3,24.6c-1.6,1.5-2.8,3-3.2,4.2
			C-0.3,30,0.1,31.1,1.3,32c2.9,2.2,14.6,1.5,26.3,0.1c-7.5,8.8-14.8,17-19.2,21.3c0-0.2-0.1-0.6-0.4-0.9c-0.4-0.4-0.9-0.5-1-0.3
			c0,0-3.2,3.3-2.8,4.5c0.4,1.1,1,1.4,1.9,1.2C8.7,57,19.6,44.7,30.5,31.8c6.4-0.8,12.5-1.8,17-2.5c-2.3,6-4.8,11.1-6.5,14.8
			c-1.7,3.7-2.8,6-2.6,6.7c0.3,0.9,0.9,1.3,1.6,1.1c0.5-0.1,1.6-1.5,3-3.8c1.9-3,4.2-7.5,5.7-12.4c0.7-2.3,1.2-4.6,1.4-6.9
			c2.8-0.5,4.5-0.8,4.5-0.8C54.9,27.9,55,27.5,54.6,27.1z M43.3,43.7c0.8-1.8,1.8-3.9,2.8-6.1C45.3,39.8,44.3,41.9,43.3,43.7z
			 M29.1,30.4C17,32,4.3,33.1,1.6,31c-0.1-0.1-0.1-0.5,0.1-1.1c0.4-1.1,1.5-2.5,3.1-4c1.6-1.5,3.8-3.1,6.3-4.6
			c9.3-5.7,23-10.6,31.3-6.6l-1.7,2C37.1,21,33.1,25.7,29.1,30.4z M48.3,27.4c-4,0.7-9.9,1.7-16.2,2.6c3.5-4.1,6.9-8.2,10.1-11.9
			l2-2.4c1.9,1.3,3.1,3.1,3.8,5.1c0.6,1.8,0.8,3.7,0.7,5.7L48.3,27.4z M49.9,23c-0.1-0.6-0.3-1.2-0.5-1.7c-0.8-2.4-2.3-4.6-4.6-6.4
			C51.3,7.2,56,1.7,56.4,1.6c0.3-0.1-0.5,0.7-0.9,2.6c-0.6,3.1-2.1,8.4-5,16.9C50.3,21.7,50.1,22.4,49.9,23z M88.9,24.3l2.4-3.1
			c0.1-0.2,0-0.7-0.4-1.1c-0.4-0.3-0.9-0.5-1-0.2L87.5,23c-0.2,0.2,0,0.7,0.4,1.1C88.3,24.4,88.8,24.5,88.9,24.3z M97.1,24.1
			c-0.4-0.4-0.8-0.5-1-0.3c0,0-0.4,0.4-1,1.1L92,29.2c0,0,0,0,0,0c0-0.1-0.1-0.1-0.2-0.2c-0.4-0.4-0.7,0-0.9,0.2
			c0,0-4.7,5.4-6.6,5.2c-0.5-0.2-0.6-0.9,0-2.3c0.9-2,2.4-4.1,3.3-5c0.2-0.2,0-0.6-0.3-1c-0.4-0.4-0.9-0.5-1.1-0.3
			c-0.8,0.8-2,2.4-2.9,4.1c0-0.1-0.1-0.2-0.2-0.2c-0.4-0.4-0.6-0.2-0.8,0c-1.5,1-3.1,1-4.1,0.8c0-0.7,0-1.4-0.1-2
			c-0.1-0.6-0.3-1.1-0.6-1.6c-0.4-0.7-0.9-1.2-1.5-1.5c-0.4-0.2-0.8-0.2-1.2-0.1c-0.5,0.1-0.8,0.6-0.8,1.3c0,0.6,0.2,1.4,0.6,2.2
			c0.4,0.8,1.1,1.6,2,2.2c-0.1,0.7-0.3,1.3-0.6,1.9c-0.5,1.1-1,2-1.6,2.6c-0.4,0.5-0.9,0.8-1.3,1c-0.4,0.1-0.6,0.1-0.9,0.1
			c-0.3-0.4-0.2-1.6,0.1-2.8c0.4-1.5,1.1-2.9,2-3.9c0.1-0.1,0.2-0.2,0.3-0.3c0.2-0.2,0-0.6-0.3-1c-0.4-0.4-0.9-0.5-1-0.4
			c-0.1,0.1-0.3,0.2-0.4,0.4c-0.5,0.5-1,1.3-1.4,2.1c0,0,0,0,0,0c-0.4-0.2-0.6,0-0.6,0.2c-1,2-9.5,9.7-12,11.3
			c-0.4,0.3-2.4,1.1-2.8,0.6c-0.7-1.3,1.3-6.8,4.2-12.8c0.1,0,0.1,0,0.2,0c0,0,11.6-10.2,14.2-16.3c0.7-1.6,0.8-2.7,0.6-3.4
			c-0.3-0.7-0.9-1.2-1.7-1.4c-0.5-0.2-1-0.1-1.5,0.1c-1.4,0.5-3.2,2.1-4.5,4.3C67,13.1,51.1,39.5,54.1,43.2c1.3,1.8,4,0.7,5.6-0.3
			c2.1-1.2,8.1-6.7,10.9-9.9c-0.3,1.5-0.1,3,0.6,3.9c0.1,0.1,0.2,0.2,0.3,0.3c0.3,0.3,0.6,0.5,1,0.7c0.6,0.3,1.2,0.3,1.8,0.1
			c0.5-0.2,1-0.6,1.5-1.1c0.6-0.6,1.2-1.6,1.7-2.7c0.4-0.7,0.6-1.6,0.7-2.4c1.4,0.4,2.9,0.1,4.8-1c0,0.1-0.1,0.2-0.1,0.3
			c-0.7,1.6-0.9,3.2-0.2,4.3c1.8,2.7,6.8-2.7,8.6-4.7c0,0.1,0,0.1,0.1,0.2c0.4,0.3,0.9,0,1.1-0.2l1.7-2.3c-1,2.1-0.5,2.1-0.5,2.7
			c0.3,1,0.2,1.9-0.1,2.5c-0.1,0.3-0.4,0.7-0.6,0.9c-0.3,0.2-0.6,0.4-0.9,0.5c-0.4,0.1-0.7,0.1-0.9,0.1c-0.1,0,0.5-1.2,0.5-1.3
			c0.1-0.2-0.1-0.7-0.6-1.1c-0.4-0.3-0.9-0.4-1-0.2c0,0-1.2,2.7,1.5,3.9c0.5,0.2,1.2,0.3,1.8,0.1c0.4-0.1,0.7-0.3,1-0.6
			c0.3-0.3,0.6-0.6,0.8-1.1c0.3-0.8,0.4-1.9,0-3.2c-0.7-2.1,0.5-4.1,1.4-5.3l1-1.1C97.7,24.9,97.5,24.4,97.1,24.1z M68.7,13.9
			c1.3-2.2,3.1-3.7,4.4-4.2c0.2-0.1,0.5-0.1,0.6-0.1c0.2,0.6,0,1.6-0.6,3c-1.7,4-7.4,9.9-11,13.3C65.4,19.5,68.7,13.9,68.7,13.9z
			 M75.9,28.9c-0.3-0.5-0.4-1-0.4-1.4c0-0.4,0.1-0.7,0.4-0.7c0.1-0.1,0.3-0.1,0.3,0c0,0-0.1,0,0,0c0.1,0.2,0.2,0.6,0.3,1
			c0.1,0.6,0.2,1.3,0.1,2.1C76.3,29.5,76.1,29.2,75.9,28.9z"/>
	</g>
</g>
</svg>
