<?xml version="1.0" encoding="utf-8"?>
<!-- Generator: Adobe Illustrator 27.8.1, SVG Export Plug-In . SVG Version: 6.00 Build 0)  -->
<svg version="1.1" id="Layer_1" xmlns="http://www.w3.org/2000/svg" xmlns:xlink="http://www.w3.org/1999/xlink" x="0px" y="0px"
	 viewBox="0 0 116.1 51.5" style="enable-background:new 0 0 116.1 51.5;" xml:space="preserve">
<g>
	<g>
		<path d="M30.1,0.8c-1.6-1-3.9-1.2-7.1-0.2l-0.4,0.1C16.4,2.9,10.1,8,5.7,14c-4.4,6.1-6.9,13-5.1,18.6l0.1,0.2
			c0.4,1.3,1.1,2.4,2,3.2c1.9,1.8,4.6,2.3,7.6,1.7c2.8-0.5,5.9-1.9,8.9-3.7c2.5-1.5,5-3.3,7.1-5.2c-1.1,1.9-2.4,4.1-3.7,6.3
			c-0.5,0-0.9,0-1.4,0.2c-2.5,0.8-5.3,3.8-7.4,7c-2.2,3.2-3.6,6.5-3.2,7.7c0.4,1.2,1,1.7,2.1,1.3c2.2-0.7,6.8-7.5,11-14.5
			c0.6,0.3,1.1,1,1.5,2.2c0.1,0.4,0.5,0.8,1,1c0.4,0.2,0.6,0,0.5-0.4c-0.6-2-1.3-3.2-2.3-3.9c4.1-6.8,7.6-13.3,7.8-13.6
			c0.1-0.2-0.1-0.7-0.5-1c-0.4-0.4-0.9-0.5-1-0.3c-2.4,3.8-7.5,8.5-12.9,11.7c-3,1.8-6.1,3.1-8.8,3.6c-2.5,0.5-4.6,0.3-5.8-0.9
			c-0.5-0.4-0.8-1.1-1.1-1.9l-0.1-0.2c-1.6-5.2,0.8-11.9,5.1-17.8c4.4-6,10.6-11,16.7-13.1l0.4-0.1C27.1,1.3,29,1.4,30.1,2
			c0.5,0.3,0.8,0.8,1,1.5c0.3,0.9,0.3,2,0.2,3.1c-0.4,3-1.9,6.2-3.6,7.2c-0.3,0.2-0.2,0.6,0.2,1c0.3,0.4,0.9,0.6,1.1,0.5
			c1.7-1.1,3.4-4.4,3.8-7.6c0.1-1.2,0.1-2.5-0.3-3.6C32.2,2.8,31.4,1.7,30.1,0.8z M12.2,49.5c0.4-1.4,1.5-3.6,3-5.9
			c1.8-2.6,4-5.2,6-6.3C17.8,42.9,14.3,48,12.2,49.5z M41.1,23l2.4-3.1c0.1-0.2,0-0.7-0.4-1.1c-0.4-0.3-0.9-0.5-1-0.3l-2.4,3.1
			c-0.2,0.2,0,0.7,0.4,1.1C40.5,23.1,41,23.2,41.1,23z M67.4,9.8l-9.7,17.4c-0.3-0.1-0.4,0.1-0.5,0.2c-1.1,2-9.7,9.5-12.3,11
			c-0.4,0.3-2.4,1.1-2.8,0.5c-0.7-1.3,1.4-6.7,4.5-12.7c0.1,0,0.1,0,0.2,0c0,0,11.9-9.9,14.5-16c0.8-1.6,0.9-2.7,0.7-3.4
			c-0.3-0.7-0.8-1.2-1.6-1.4c-0.5-0.2-1-0.1-1.5,0.1c-1.4,0.5-3.3,2-4.6,4.2c-0.2,0.1-6.4,9.7-10.6,18.1c-0.3-0.1-0.5,0.2-0.6,0.3
			c0,0-4.9,5.2-6.8,5.1c-0.5-0.2-0.6-0.9,0-2.3c0.9-2,2.5-4,3.5-4.9c0.2-0.2,0.1-0.6-0.3-1c-0.4-0.4-0.9-0.6-1.1-0.4
			c-1,0.9-2.6,3.1-3.5,5.1c-0.7,1.6-1,3.2-0.3,4.3c1.5,2.4,5.6-1.3,7.9-3.6c-2,4.3-3.2,8-2.2,9.2c1.2,1.8,4,0.8,5.6-0.1
			c1.8-1,6.5-5,9.7-8.1l-2,3.6c-0.1,0.2,0.1,0.7,0.5,1.1c0.4,0.4,0.8,0.5,0.9,0.3c0,0,1.6-2,3.7-4.3c0.5,1.5,1.7,3,4.5,2.2
			c2-0.6,3.7-3.6,4.4-6.1c0.2-0.7,0.3-1.3,0.2-1.9c0-0.8-0.4-1.5-1.1-2.1l0,0c-0.6-0.4-1.3-0.4-2.1,0c-1.4,0.7-3.3,2.4-5.1,4.2
			l9.5-17.1c0.1-0.2-0.1-0.7-0.5-1.1C68,9.6,67.5,9.5,67.4,9.8z M55.6,10.5c1.4-2.1,3.1-3.6,4.5-4.1c0.2-0.1,0.5-0.1,0.6-0.1
			c0.2,0.6,0,1.6-0.6,3c-1.8,4-7.7,9.7-11.3,13.1C52.1,16.1,55.6,10.5,55.6,10.5z M66.5,25.1L66.5,25.1
			C66.5,25.2,66.5,25.1,66.5,25.1C66.4,25.1,66.5,25.1,66.5,25.1z M65.8,25.4c0.1-0.1,0.3-0.2,0.4-0.2c0,0.5-0.1,1-0.2,1.6
			c-0.5,2.3-2.2,5.2-4,5.7c-1.9,0.5-2.1-1.4-2.2-1.9C61.9,28.4,64.1,26.2,65.8,25.4z M115.9,16.1c-0.2-0.4-0.8-0.7-1.1-0.7
			l-11.7,0.5c3.3-5.5,6.5-10.3,6.5-10.4c0.1-0.2-0.1-0.7-0.5-1c-0.4-0.4-0.9-0.5-1-0.3c0,0-3.7,5.6-7.2,11.8l-15.5,0.7
			c-0.3,0-0.4,0.4-0.1,0.8c0.3,0.4,0.8,0.8,1.1,0.8c0,0,11.7-1,11.8,2.5c0,0-0.3,0.5-0.3,0.5c-0.8,1.5-1.5,2.9-2.1,4.2
			c0,0,0-0.1-0.1-0.1c-0.3-0.4-0.6-0.2-0.8-0.1c-1.2,0.4-2.5,0.7-3.4,0.7c-0.6,0-0.5-1.1-0.9-1.5c-1-1.1-3.1-0.3-4.7,0.6l1.6-2.8
			c0.1-0.2-0.1-0.7-0.5-1.1c-0.4-0.4-0.9-0.5-1-0.2L83.1,26c-0.4-0.3-0.9,0-1,0.3c-1.3,2.6-13.4,8.9-10.6,2.1c0.1,0,2.6-0.4,4.7-1.6
			c1.1-0.6,1.9-1.7,2.4-2.6c0.2-0.5,0.4-0.9,0.4-1.3c0.1-0.6-0.1-1.1-0.6-1.6c-0.3-0.4-0.7-0.6-1.1-0.6c-0.5-0.1-1.7,0.5-3,1.5
			c-1,0.8-2,1.8-2.9,2.8c-0.9,1.1-1.5,2.3-1.7,3.5c-0.3,1.8,0.8,3.6,2.4,4.4c2.4,1.2,6.7-1.3,9.4-3.6l-1.5,2.7
			c-0.1,0.2,0.1,0.7,0.5,1.1c0.4,0.4,0.9,0.5,1,0.2c0.2-0.4,2.4-4.6,2.5-4.6c0,0,3.9-3.8,4.6-3c1.1,1.1,1.4,1.5,2.6,1.5
			c0.9,0,3.1-0.5,4.4-1c-1.3,2.9-2,5.2-1.5,6c2.4,4,12.4-6.7,12.4-6.8c0.2-0.1,0.4-0.4,0.1-0.8c-0.4-0.4-0.7-0.3-0.8-0.1
			c0,0-9,7.9-9.9,6.4c-0.5-0.9,0.8-3.6,3.4-8.3c0.1,0,0.2-0.1,0.2-0.3l0,0c0.9-1.5,1.7-3.1,2.6-4.6l13.7-0.6
			C116.1,16.9,116.2,16.5,115.9,16.1z M75.6,23.5c0.7-0.5,1.2-0.9,1.7-1.2c-0.1,0.2-0.1,0.3-0.2,0.5c-0.5,0.9-1.2,1.9-2.2,2.4
			c-0.7,0.4-1.4,0.7-2,0.9C73.7,25.2,74.7,24.2,75.6,23.5z M98.6,19.9c-0.8-0.9-3.1-1.7-4.5-2.2l5.8,0
			C99.5,18.4,99.1,19.1,98.6,19.9z"/>
	</g>
</g>
</svg>
