<?xml version="1.0" standalone="no"?>
<!DOCTYPE svg PUBLIC "-//W3C//DTD SVG 20010904//EN"
 "http://www.w3.org/TR/2001/REC-SVG-20010904/DTD/svg10.dtd">
<svg version="1.0" xmlns="http://www.w3.org/2000/svg"
 width="260.000000pt" height="260.000000pt" viewBox="0 0 260.000000 260.000000"
 preserveAspectRatio="xMidYMid meet">
<metadata>
Created by potrace 1.14, written by Peter Selinger 2001-2017
</metadata>
<g transform="translate(0.000000,260.000000) scale(0.100000,-0.100000)"
fill="#000000" stroke="none">
<path d="M2059 2075 c-36 -60 -161 -124 -199 -100 -5 3 -10 2 -10 -3 0 -5 -30
-12 -67 -15 -113 -9 -189 -40 -299 -121 l-99 -73 -27 31 c-15 17 -28 35 -28
39 0 10 -60 69 -60 59 0 -3 -8 2 -17 10 -22 19 -78 48 -93 48 -6 0 -16 -13
-21 -29 -8 -23 -17 -31 -42 -33 -28 -3 -32 -7 -32 -31 0 -28 -26 -54 -44 -43
-5 4 -16 3 -25 0 -12 -4 -13 -11 -6 -24 12 -23 -8 -41 -37 -34 -25 7 -39 -12
-23 -31 16 -19 4 -35 -26 -35 -28 0 -42 -24 -26 -43 14 -16 -1 -42 -20 -35 -8
3 -22 0 -33 -8 -10 -8 -15 -14 -9 -14 5 0 2 -5 -6 -10 -10 -6 -11 -10 -2 -10
6 0 12 -7 12 -16 0 -11 -6 -15 -20 -11 -11 3 -18 1 -14 -4 3 -5 -2 -9 -10 -9
-23 0 -29 -18 -12 -36 22 -21 21 -23 -14 -35 -16 -6 -30 -14 -30 -18 0 -4 -16
-5 -36 -3 -46 6 -122 -16 -134 -39 -7 -12 -6 -19 3 -23 6 -3 -1 -3 -18 1 -29
5 -29 5 -10 -12 11 -9 14 -14 7 -10 -7 4 -25 10 -41 15 -22 6 -28 4 -28 -9 0
-20 15 -30 47 -32 23 -1 22 -2 -5 -8 l-30 -7 38 -18 c37 -18 75 -62 42 -50 -8
4 -15 10 -15 16 0 20 -84 46 -125 39 l-40 -7 73 -23 c40 -13 85 -34 100 -48
24 -21 24 -23 4 -13 -21 10 -24 8 -42 -32 -25 -56 -25 -80 3 -128 22 -41 87
-81 152 -95 36 -8 177 -7 199 1 9 3 16 2 16 -3 0 -11 -112 -64 -170 -81 -19
-6 -61 -14 -93 -18 -52 -6 -62 -4 -98 20 -74 50 -108 65 -181 84 -132 33 -258
12 -258 -43 0 -39 84 -112 215 -190 14 -9 17 -18 11 -48 -5 -25 -11 -35 -19
-31 -9 5 -9 4 -1 -5 8 -9 8 -28 -1 -71 -7 -33 -10 -62 -7 -65 3 -3 0 -5 -5 -5
-7 0 -3 -17 8 -40 17 -35 24 -40 52 -40 52 0 109 44 147 114 18 33 36 63 40
66 3 3 12 20 19 37 26 65 117 92 208 62 43 -14 299 -18 422 -6 70 7 83 6 78
-6 -3 -8 -1 -20 3 -28 6 -8 4 -16 -3 -21 -9 -6 -9 -8 1 -8 6 0 12 -6 12 -13 0
-20 57 -74 86 -81 13 -4 41 -2 62 3 20 6 42 11 47 12 6 1 23 15 40 33 16 17
34 30 40 28 5 -2 7 -1 4 3 -4 3 0 27 7 52 8 25 14 70 14 99 0 47 3 56 28 71
15 10 29 20 32 23 8 10 54 40 60 40 3 0 4 -17 2 -39 -5 -52 37 -102 86 -103
36 -1 82 35 108 84 20 38 19 157 -2 186 -15 22 -15 24 2 36 11 8 14 18 9 27
-5 8 3 4 17 -8 28 -26 70 -30 87 -9 10 12 6 13 -29 9 -32 -4 -40 -2 -40 10 0
19 22 28 41 16 19 -12 109 -11 109 1 0 6 -27 10 -60 10 -47 0 -60 3 -60 15 0
18 30 19 114 4 60 -11 89 -7 226 32 9 2 14 -3 15 -15 0 -18 8 -20 97 -20 54
-1 98 2 98 5 0 11 -42 19 -101 19 -41 0 -58 4 -62 15 -8 20 0 23 60 21 28 -1
49 2 47 6 -7 10 -3 10 35 -3 17 -6 31 -16 31 -22 0 -7 -4 -7 -12 1 -26 26 -27
10 -1 -19 15 -17 29 -26 31 -21 2 7 15 7 35 1 18 -5 33 -9 35 -9 2 0 2 19 0
42 -3 40 -5 43 -38 49 -19 3 -46 9 -60 13 -24 8 -24 8 -5 -7 18 -14 14 -14
-35 -1 -47 12 -62 12 -100 1 -26 -8 -104 -15 -189 -16 l-145 -3 34 39 c18 21
112 121 209 223 233 243 265 279 258 286 -9 10 -69 -4 -107 -25 -19 -10 -53
-24 -75 -31 -22 -7 -44 -16 -50 -20 -5 -4 -34 -13 -62 -19 -65 -13 -100 -2
-110 36 -10 34 -9 205 1 253 24 118 19 160 -20 160 -18 0 -30 -10 -45 -35z
m35 -57 c-2 -13 -7 -38 -10 -55 -3 -18 -11 -33 -16 -33 -11 0 -2 64 13 92 13
25 19 23 13 -4z m-84 -74 c0 -23 -22 -97 -32 -108 -4 -6 -8 11 -8 37 0 35 -4
47 -15 47 -8 0 -15 -5 -15 -11 0 -6 -8 -8 -20 -4 -15 5 -21 0 -26 -19 -9 -37
-31 -32 -25 6 0 4 -5 5 -12 2 -7 -2 -20 1 -30 8 -15 11 -10 13 35 16 29 2 71
12 93 22 51 23 55 24 55 4z m54 -56 c-3 -18 -10 -46 -15 -63 -4 -16 -13 -61
-20 -100 -6 -38 -12 -77 -14 -85 -2 -8 -4 -23 -4 -34 -1 -13 -6 -16 -18 -12
-16 5 -16 4 -2 -6 16 -11 13 -43 -8 -98 -3 -8 -7 -23 -8 -32 -1 -10 -4 -21 -8
-24 -8 -9 -77 16 -77 27 0 13 96 159 101 154 3 -2 3 14 1 36 -3 28 0 39 9 39
9 0 10 3 4 8 -7 4 -5 28 5 70 9 34 19 59 24 55 4 -4 4 0 1 9 -4 9 0 30 9 46 8
16 12 32 9 36 -4 3 -1 6 5 6 7 0 9 -11 6 -32z m-310 12 c-12 -5 -25 -13 -28
-19 -4 -6 -14 -7 -24 -4 -14 5 -15 3 -5 -7 8 -8 9 -18 4 -24 -13 -16 -16 -47
-7 -80 5 -20 3 -32 -6 -38 -10 -8 -10 -9 2 -5 9 3 24 -10 39 -34 25 -38 62
-59 108 -59 15 0 22 -4 17 -11 -3 -6 -16 -8 -28 -5 -17 4 -22 1 -23 -15 -1
-11 6 -22 15 -25 14 -5 59 -24 70 -30 2 -1 -8 -19 -23 -39 -14 -21 -25 -46
-25 -56 0 -11 -3 -19 -7 -19 -5 0 -19 -18 -32 -40 -14 -21 -29 -36 -34 -33 -6
3 -7 2 -4 -4 15 -24 -87 -109 -128 -107 -11 1 -41 2 -67 3 -48 1 -84 23 -72
43 4 6 2 8 -4 4 -6 -3 -14 -1 -18 5 -3 6 0 15 7 20 11 7 10 9 -5 9 -17 0 -18
6 -12 63 4 34 16 82 28 107 24 55 29 78 19 84 -15 9 -50 -34 -61 -74 -7 -26
-17 -40 -28 -41 -10 0 -12 -3 -4 -6 13 -5 17 -43 5 -43 -15 0 -6 -95 11 -128
17 -33 17 -33 -3 -23 -25 14 -34 14 -26 1 4 -6 -7 -10 -24 -10 -17 0 -31 4
-31 9 0 4 -24 4 -52 -1 -29 -6 -82 -8 -118 -4 -60 5 -63 4 -40 -10 l25 -14
-27 6 c-37 8 -146 53 -130 54 7 0 11 4 8 8 -3 5 8 9 24 9 18 0 37 9 50 24 12
13 19 18 15 11 -4 -7 -4 -19 -1 -27 4 -12 10 -12 38 3 44 23 49 31 29 51 -15
16 -18 16 -41 2 -22 -15 -24 -15 -17 2 4 10 7 23 7 28 0 5 7 9 15 9 8 0 15 6
15 13 0 8 3 8 9 -2 8 -12 14 -13 36 -3 15 7 32 9 38 5 7 -4 6 1 -2 10 -7 9
-11 26 -8 36 5 19 4 19 -19 4 -14 -9 -27 -13 -30 -10 -7 7 37 47 46 42 4 -2
17 6 30 20 20 21 24 22 37 9 14 -13 17 -13 30 6 8 11 18 18 22 16 11 -7 10 27
-2 42 -7 9 -5 11 8 6 12 -5 16 -4 11 4 -11 18 5 62 23 62 19 1 51 23 51 36 0
23 166 148 183 137 5 -3 7 -1 3 5 -6 9 8 18 39 24 6 1 28 7 50 14 45 14 81 17
49 4z m-537 -27 c2 -6 -2 -13 -9 -16 -7 -2 -1 -3 14 -1 22 3 33 -5 59 -39 59
-76 57 -72 29 -57 -23 12 -24 12 -11 -3 7 -10 20 -17 28 -17 19 0 11 -24 -9
-28 -10 -2 -31 18 -55 52 -21 31 -42 56 -48 56 -5 0 -21 9 -35 20 -25 20 -25
21 -5 35 21 16 37 15 42 -2z m597 -35 c-25 -41 1 -99 54 -119 12 -5 22 -12 22
-17 0 -17 -44 -29 -72 -20 -34 12 -78 79 -78 118 0 25 6 33 32 45 35 14 53 11
42 -7z m113 -20 c-3 -8 -6 -5 -6 6 -1 11 2 17 5 13 3 -3 4 -12 1 -19z m-781
-21 c5 -1 8 -8 8 -15 -2 -10 1 -10 12 -1 13 10 18 6 15 -13 0 -5 2 -7 7 -7 17
3 35 -1 29 -7 -3 -4 4 -15 16 -25 16 -13 18 -18 7 -19 -10 0 -7 -5 8 -16 26
-18 28 -36 7 -54 -12 -10 -16 -8 -24 12 -11 29 -96 115 -122 123 -24 8 -24 21
-2 34 12 6 20 6 24 -1 3 -5 10 -10 15 -11z m-14 -100 c47 -45 75 -97 57 -108
-8 -5 -18 0 -28 14 -8 12 -23 28 -33 35 -10 7 -16 18 -13 23 4 5 0 9 -7 9 -24
1 -81 58 -75 75 6 14 10 14 34 1 16 -8 44 -30 65 -49z m828 13 c0 -11 -6 -20
-12 -20 -9 0 -8 -4 2 -11 10 -7 11 -9 2 -7 -8 2 -13 7 -13 11 1 4 1 16 1 27 0
11 5 20 10 20 6 0 10 -9 10 -20z m-929 -48 c51 -33 121 -143 92 -142 -5 1 -23
21 -41 46 -18 25 -43 49 -55 55 -52 24 -64 34 -53 46 15 17 27 16 57 -5z
m1329 -6 c0 -10 -63 -35 -102 -40 l-43 -6 40 13 c23 8 50 19 60 25 20 11 45
16 45 8z m-183 -49 c3 -4 -8 -7 -25 -7 -17 0 -33 4 -36 8 -6 10 51 8 61 -1z
m-1184 -28 c16 -9 28 -20 27 -23 0 -4 10 -16 24 -27 25 -20 34 -48 19 -63 -4
-4 -26 14 -50 40 -24 25 -43 42 -43 38 0 -4 -11 5 -25 20 -43 47 -17 55 48 15z
m307 12 c0 -5 -7 -11 -15 -15 -15 -5 -20 5 -8 17 9 10 23 9 23 -2z m-369 -76
c19 -14 49 -42 67 -62 29 -33 31 -39 17 -52 -13 -13 -17 -12 -37 10 -13 14
-49 40 -81 58 -56 32 -58 34 -41 52 22 25 33 24 75 -6z m1294 -25 c-3 -5 -12
-10 -18 -10 -7 0 -6 4 3 10 19 12 23 12 15 0z m-25 -25 c0 -3 -23 -30 -52 -60
-36 -38 -58 -54 -72 -51 -12 2 -15 1 -8 -1 17 -6 10 -39 -7 -35 -7 1 -10 -1
-7 -6 3 -5 -15 -29 -40 -53 -35 -34 -51 -43 -72 -41 -36 5 -36 5 -18 40 9 17
16 52 17 80 l2 49 61 11 c33 7 85 25 116 40 54 29 80 37 80 27z m-1442 -57
c13 0 21 -3 18 -6 -3 -3 -1 -11 5 -19 15 -17 5 -17 -29 1 -20 10 -40 12 -77 5
-68 -11 -105 -11 -105 0 0 14 77 28 125 23 22 -2 50 -4 63 -4z m142 2 c12 0
60 -52 60 -65 0 -5 -7 -1 -15 9 -8 10 -31 30 -52 43 -21 14 -30 22 -20 19 10
-3 23 -6 27 -6z m-63 -42 c-2 -7 -10 -12 -16 -10 -6 1 -11 -3 -11 -9 0 -5 -5
-7 -11 -4 -6 5 -4 12 8 21 23 17 36 18 30 2z m28 -8 c3 -5 1 -10 -4 -10 -6 0
-11 5 -11 10 0 6 2 10 4 10 3 0 8 -4 11 -10z m119 -69 c-3 -3 -15 6 -27 18
l-22 24 27 -19 c14 -10 24 -21 22 -23z m-146 -6 c-3 -3 -9 2 -12 12 -6 14 -5
15 5 6 7 -7 10 -15 7 -18z m1007 -4 c-3 -12 -10 -19 -15 -16 -11 7 -7 -28 5
-38 9 -8 -13 -6 -123 7 -19 2 -37 7 -40 12 -4 4 4 4 18 1 16 -4 31 0 44 11 18
16 19 16 13 0 -5 -14 -1 -18 17 -18 15 0 33 13 51 36 29 37 41 39 30 5z m-845
-57 c0 -2 -16 -4 -35 -4 -19 0 -35 4 -35 8 0 4 16 6 35 4 19 -2 35 -6 35 -8z
m322 5 c57 -6 112 -18 123 -25 11 -8 33 -15 50 -15 18 -1 23 -3 12 -6 -10 -3
-49 2 -85 11 -37 9 -105 21 -152 27 -83 10 -115 19 -72 19 12 0 68 -5 124 -11z
m-238 -14 c-5 -11 1 -15 17 -15 20 0 21 2 9 11 -19 13 78 6 203 -16 48 -8 126
-22 175 -30 126 -22 268 -37 335 -35 31 1 57 -2 57 -7 0 -5 -12 -17 -27 -28
-15 -11 -52 -41 -83 -66 -225 -186 -419 -275 -617 -283 -18 0 -33 -4 -33 -8 0
-12 -38 -10 -45 2 -3 6 -12 10 -18 10 -7 0 -6 -4 3 -10 20 -13 -199 -12 -260
2 -25 5 -54 10 -65 12 -20 2 -67 14 -94 22 -11 4 -10 8 5 19 11 8 23 10 28 5
5 -5 17 -5 28 1 11 6 22 8 26 5 3 -3 13 1 23 10 10 9 27 14 38 11 15 -3 18 -1
14 11 -5 12 0 14 29 9 31 -5 37 -2 47 19 6 13 22 29 36 36 29 13 40 40 29 76
-4 15 -6 33 -5 40 1 6 -7 12 -17 12 -14 0 -21 9 -25 30 -8 37 0 60 21 60 13 0
12 4 -4 23 -10 12 -12 16 -4 10 17 -15 66 -17 75 -3 4 6 -6 10 -24 10 -16 0
-33 5 -37 12 -4 6 -3 8 3 5 16 -10 120 -20 197 -19 46 0 65 -3 55 -9 -8 -5
-41 -9 -74 -9 -52 -1 -57 -3 -35 -12 34 -14 185 -12 212 4 22 12 20 13 -25 18
-27 3 -51 10 -55 16 -10 13 -47 19 -123 19 -46 0 -66 4 -66 13 0 6 9 12 19 12
10 0 18 5 18 10 0 6 9 10 20 10 13 0 18 -5 14 -15z m-449 -17 c6 1 33 4 60 7
50 5 50 5 -10 -9 -52 -12 -63 -12 -80 1 l-20 15 20 -7 c11 -4 25 -7 30 -7z
m365 -8 c0 -5 -7 -7 -15 -4 -8 4 -15 8 -15 10 0 2 7 4 15 4 8 0 15 -4 15 -10z
m557 4 c-3 -3 -12 -4 -19 -1 -8 3 -5 6 6 6 11 1 17 -2 13 -5z m163 -13 c32
-10 31 -10 -15 -4 -27 3 -70 10 -95 14 -41 7 -40 7 15 4 33 -1 76 -8 95 -14z
m237 13 c-3 -3 -12 -4 -19 -1 -8 3 -5 6 6 6 11 1 17 -2 13 -5z m323 2 c0 -2
-7 -6 -15 -10 -8 -3 -15 -1 -15 4 0 6 7 10 15 10 8 0 15 -2 15 -4z m-1426 -15
c3 -4 -6 -6 -19 -3 -14 2 -25 6 -25 8 0 8 39 4 44 -5z m1706 -21 c18 -12 2
-12 -25 0 -13 6 -15 9 -5 9 8 0 22 -4 30 -9z m-1925 -20 c-38 -10 -77 -19 -84
-19 -25 -1 3 19 35 25 16 3 30 6 31 8 1 1 22 3 45 3 39 2 37 0 -27 -17z m1280
10 c-3 -5 -21 -10 -40 -10 -19 0 -37 5 -40 10 -4 6 12 10 40 10 28 0 44 -4 40
-10z m-1190 -35 c-93 -30 -166 -48 -171 -42 -9 9 39 26 116 42 83 17 106 17
55 0z m30 -85 c-27 -12 -43 -12 -25 0 8 5 22 9 30 9 10 0 8 -3 -5 -9z m-60
-20 c-3 -5 -11 -10 -16 -10 -6 0 -7 5 -4 10 3 6 11 10 16 10 6 0 7 -4 4 -10z
m1054 -86 c-9 -22 -13 -25 -16 -12 -3 10 2 24 9 32 18 20 20 13 7 -20z m101
-36 c0 -15 -4 -30 -10 -33 -6 -4 -10 12 -10 42 0 35 3 44 10 33 5 -8 10 -27
10 -42z m-1622 30 c6 -6 17 -13 24 -14 51 -8 142 -43 112 -44 -18 0 -178 52
-188 61 -6 5 0 9 15 9 14 0 30 -5 37 -12z m12 -68 c12 -8 11 -10 -7 -10 -12 0
-25 5 -28 10 -8 13 15 13 35 0z m240 -32 c0 -5 -7 -8 -15 -8 -10 0 -15 10 -15
27 0 26 1 26 15 7 8 -10 15 -22 15 -26z m1262 0 c-7 -7 -12 -8 -12 -2 0 14 12
26 19 19 2 -3 -1 -11 -7 -17z m54 -15 c-11 -11 -19 6 -11 24 8 17 8 17 12 0 3
-10 2 -21 -1 -24z m-1466 -13 c12 -8 11 -10 -7 -10 -12 0 -25 5 -28 10 -8 13
15 13 35 0z m1200 -35 c0 -18 -1 -18 -16 3 -8 12 -12 27 -8 33 8 14 24 -8 24
-36z m-197 -69 c-22 -30 -43 -41 -43 -21 0 7 9 16 19 20 11 3 22 13 25 22 4 9
9 13 12 10 3 -3 -2 -17 -13 -31z m-875 -1 c-10 -23 -28 -34 -28 -18 0 7 31 43
36 43 2 0 -2 -11 -8 -25z m937 -3 c-6 -4 -11 -18 -13 -32 -2 -14 -10 -36 -19
-49 -14 -21 -16 -22 -31 -8 -12 13 -13 19 -3 31 8 9 18 13 25 9 6 -3 8 -3 4 2
-9 9 31 69 40 60 4 -3 2 -9 -3 -13z m-1015 4 c0 -2 -7 -9 -15 -16 -13 -11 -14
-10 -9 4 5 14 24 23 24 12z m1036 -83 c-16 -27 -16 -28 -12 -3 2 14 8 34 12
45 7 17 9 18 12 3 2 -9 -4 -29 -12 -45z m-1013 -20 c-18 -45 -53 -96 -60 -89
-5 5 65 126 72 126 2 0 -3 -17 -12 -37z m50 -3 c-3 -11 -10 -20 -15 -20 -5 0
-7 -4 -4 -9 3 -5 -1 -14 -9 -21 -14 -11 -14 -9 -5 16 10 26 28 54 35 54 2 0 1
-9 -2 -20z"/>
<path d="M1474 1733 c4 -8 1 -13 -7 -13 -16 0 -31 -27 -19 -34 10 -6 38 17 37
31 0 6 -4 15 -9 20 -5 5 -6 3 -2 -4z"/>
<path d="M1600 1730 c0 -5 5 -10 11 -10 5 0 7 5 4 10 -3 6 -8 10 -11 10 -2 0
-4 -4 -4 -10z"/>
<path d="M1644 1685 c11 -8 22 -12 25 -9 6 6 -19 24 -34 24 -5 -1 -1 -7 9 -15z"/>
<path d="M1405 1670 c-3 -5 -1 -10 4 -10 6 0 11 5 11 10 0 6 -2 10 -4 10 -3 0
-8 -4 -11 -10z"/>
<path d="M1493 1653 c15 -11 24 -23 20 -28 -5 -4 -2 -5 5 -1 17 10 15 23 -5
30 -10 3 -25 9 -33 12 -8 3 -3 -3 13 -13z"/>
<path d="M1600 1656 c0 -2 7 -6 15 -10 8 -3 15 -1 15 4 0 6 -7 10 -15 10 -8 0
-15 -2 -15 -4z"/>
<path d="M1391 1632 c-18 -14 -20 -22 -13 -41 7 -20 10 -21 15 -8 4 10 14 17
22 17 9 0 14 4 10 9 -3 5 -1 12 5 16 11 7 4 25 -9 25 -5 0 -19 -8 -30 -18z"/>
<path d="M1552 1604 c10 -10 20 -15 24 -12 3 4 -5 12 -18 18 -22 12 -22 12 -6
-6z"/>
<path d="M1660 1610 c8 -5 20 -10 25 -10 6 0 3 5 -5 10 -8 5 -19 10 -25 10 -5
0 -3 -5 5 -10z"/>
<path d="M1407 1572 c1 -3 -4 -13 -13 -23 -25 -28 -12 -44 16 -21 23 19 24 22
9 35 -9 8 -14 12 -12 9z"/>
<path d="M1744 1566 c11 -9 24 -16 30 -16 12 0 7 5 -24 19 -24 11 -24 11 -6
-3z"/>
<path d="M1610 1566 c0 -2 7 -7 16 -10 8 -3 12 -2 9 4 -6 10 -25 14 -25 6z"/>
<path d="M1570 1534 c0 -3 12 -9 26 -14 15 -6 22 -14 18 -22 -4 -7 -3 -8 5 -4
9 6 9 11 1 21 -10 12 -50 27 -50 19z"/>
<path d="M1264 1503 c-4 -10 -8 -26 -9 -35 -3 -21 21 -11 47 20 14 18 15 21 1
26 -23 9 -30 7 -39 -11z"/>
<path d="M1554 1506 c1 -8 5 -18 8 -22 4 -3 5 1 4 10 -1 8 -5 18 -8 22 -4 3
-5 -1 -4 -10z"/>
<path d="M1685 1509 c-4 -6 -5 -12 -2 -15 2 -3 7 2 10 11 7 17 1 20 -8 4z"/>
<path d="M1808 1463 c7 -3 16 -2 19 1 4 3 -2 6 -13 5 -11 0 -14 -3 -6 -6z"/>
<path d="M1310 1449 c0 -5 5 -7 10 -4 6 3 10 8 10 11 0 2 -4 4 -10 4 -5 0 -10
-5 -10 -11z"/>
<path d="M1215 1403 c2 -10 4 -20 4 -22 1 -2 8 2 16 9 16 14 11 30 -10 30 -7
0 -12 -8 -10 -17z"/>
<path d="M1548 1413 c7 -3 16 -2 19 1 4 3 -2 6 -13 5 -11 0 -14 -3 -6 -6z"/>
<path d="M1200 1350 c-18 -16 -29 -34 -25 -40 4 -7 13 -4 25 10 21 24 40 26
40 4 0 -8 5 -12 11 -8 7 4 7 10 1 16 -6 6 -8 16 -6 23 10 26 -14 24 -46 -5z"/>
<path d="M1530 1376 c0 -2 7 -7 16 -10 8 -3 12 -2 9 4 -6 10 -25 14 -25 6z"/>
<path d="M1277 1363 c-12 -11 -8 -23 8 -23 8 0 15 7 15 15 0 16 -12 20 -23 8z"/>
<path d="M1330 1330 c0 -5 5 -10 11 -10 5 0 7 5 4 10 -3 6 -8 10 -11 10 -2 0
-4 -4 -4 -10z"/>
<path d="M1283 1305 c0 -8 4 -15 9 -15 4 0 8 4 8 9 0 6 -4 12 -8 15 -5 3 -9
-1 -9 -9z"/>
<path d="M1205 1284 c-18 -14 -18 -14 1 -14 10 0 25 4 32 9 11 7 11 9 0 13 -8
3 -22 0 -33 -8z"/>
<path d="M1277 1789 c7 -7 15 -10 18 -7 3 3 -2 9 -12 12 -14 6 -15 5 -6 -5z"/>
<path d="M1998 1308 c5 -5 16 -8 23 -6 8 3 3 7 -10 11 -17 4 -21 3 -13 -5z"/>
<path d="M1950 1300 c0 -5 5 -10 11 -10 5 0 7 5 4 10 -3 6 -8 10 -11 10 -2 0
-4 -4 -4 -10z"/>
<path d="M1225 1182 c12 -12 113 -32 162 -32 56 0 28 17 -39 24 -35 4 -79 9
-98 13 -24 4 -32 2 -25 -5z"/>
<path d="M1313 1132 c0 -11 5 -18 9 -16 4 3 8 2 8 -3 0 -15 110 -13 135 3 18
12 34 13 86 5 121 -18 219 -23 219 -12 0 6 -6 11 -12 11 -21 1 -209 19 -265
26 -37 5 -53 3 -53 -5 0 -15 -102 -15 -117 0 -9 9 -12 7 -10 -9z"/>
<path d="M981 1116 c-7 -8 -8 -17 -3 -20 6 -3 15 1 21 8 7 8 8 17 3 20 -6 3
-15 -1 -21 -8z"/>
<path d="M1230 1100 c0 -5 11 -10 25 -10 14 0 25 5 25 10 0 6 -11 10 -25 10
-14 0 -25 -4 -25 -10z"/>
<path d="M1473 1103 c9 -2 25 -2 35 0 9 3 1 5 -18 5 -19 0 -27 -2 -17 -5z"/>
<path d="M1660 1060 c-13 -24 13 -72 35 -64 22 9 26 33 9 60 -20 29 -30 30
-44 4z"/>
<path d="M1594 1036 c-6 -15 19 -70 35 -80 5 -3 14 0 20 8 9 11 7 22 -10 50
-22 38 -36 45 -45 22z"/>
<path d="M1536 988 c-40 -22 -37 -88 4 -88 25 0 54 43 45 69 -7 24 -26 32 -49
19z"/>
<path d="M970 960 c0 -5 5 -10 10 -10 6 0 10 5 10 10 0 6 -4 10 -10 10 -5 0
-10 -4 -10 -10z"/>
<path d="M1443 958 c-7 -9 -5 -26 8 -56 16 -38 20 -41 37 -31 19 12 19 13 1
53 -20 45 -31 53 -46 34z"/>
<path d="M1344 903 c-3 -16 -10 -41 -15 -57 -12 -38 -12 -36 11 -36 11 0 23 7
27 16 4 11 8 12 13 4 6 -9 13 -9 29 -1 26 15 26 25 0 67 -26 42 -56 45 -65 7z"/>
<path d="M765 790 c-3 -5 -1 -10 4 -10 6 0 11 5 11 10 0 6 -2 10 -4 10 -3 0
-8 -4 -11 -10z"/>
<path d="M501 1399 c-13 -5 -21 -12 -18 -15 3 -3 18 1 34 10 31 17 21 20 -16
5z"/>
<path d="M0 1350 c0 -5 4 -10 9 -10 6 0 13 5 16 10 3 6 -1 10 -9 10 -9 0 -16
-4 -16 -10z"/>
<path d="M220 1350 c-11 -7 -7 -10 19 -10 18 0 51 -5 72 -12 31 -9 48 -8 82 2
65 21 70 33 9 26 -29 -4 -60 -10 -69 -13 -11 -4 -14 -3 -9 5 9 15 -82 16 -104
2z"/>
<path d="M100 1340 c-24 -8 -24 -8 5 -9 17 0 37 4 45 9 12 8 11 10 -5 9 -11
-1 -31 -5 -45 -9z"/>
<path d="M115 1323 c-65 -5 -105 -13 -105 -21 0 -4 49 -3 110 2 60 5 107 13
104 17 -5 9 -27 9 -109 2z"/>
<path d="M410 1320 c0 -12 17 -12 45 0 17 7 15 9 -12 9 -18 1 -33 -3 -33 -9z"/>
<path d="M255 1300 c-4 -6 -11 -8 -16 -5 -5 4 -9 3 -9 -2 0 -4 -21 -9 -46 -11
-33 -2 -44 0 -39 9 5 7 1 9 -11 5 -17 -5 -121 -26 -130 -26 -2 0 -4 -9 -4 -20
0 -32 41 -35 97 -6 35 17 53 22 60 15 8 -8 18 -7 32 1 12 6 27 9 34 6 7 -2 4
-5 -5 -5 -11 -1 -15 -6 -12 -16 4 -8 1 -15 -6 -15 -6 0 -8 5 -4 12 4 6 3 8 -4
5 -20 -13 3 -67 28 -67 29 0 46 28 31 52 -11 17 -10 19 6 16 11 -2 18 -12 18
-27 0 -13 6 -26 13 -28 6 -3 12 0 12 6 0 6 10 11 23 11 12 0 29 5 37 11 11 7
5 8 -22 3 -31 -5 -38 -3 -38 11 0 10 7 15 18 14 9 -2 35 1 57 6 l40 9 -58 6
c-59 5 -76 20 -35 32 17 4 12 6 -19 7 -23 1 -45 -4 -48 -9z m25 -20 c0 -5 -7
-10 -15 -10 -8 0 -15 5 -15 10 0 6 7 10 15 10 8 0 15 -4 15 -10z m-35 -70 c-3
-5 -15 -10 -26 -10 -10 0 -19 5 -19 10 0 6 12 10 26 10 14 0 23 -4 19 -10z"/>
<path d="M2188 1123 c7 -3 16 -2 19 1 4 3 -2 6 -13 5 -11 0 -14 -3 -6 -6z"/>
<path d="M2320 1100 c28 -53 120 -66 170 -24 17 15 28 29 25 32 -2 3 -15 -3
-27 -14 -13 -10 -17 -12 -10 -4 20 23 14 35 -8 15 -15 -13 -30 -16 -62 -12
-23 3 -44 11 -46 16 -2 6 -15 11 -28 11 -22 0 -23 -3 -14 -20z"/>
<path d="M1180 670 c0 -5 5 -10 11 -10 5 0 7 5 4 10 -3 6 -8 10 -11 10 -2 0
-4 -4 -4 -10z"/>
</g>
</svg>
